<svg xmlns="http://www.w3.org/2000/svg" viewBox="0 0 396.781 396.781" width="512" height="512"><path d="M321.111 0H75.671a8 8 0 00-8 8v380.8a8 8 0 0013.36 5.92l117.36-106.8 117.36 106.8a8 8 0 0013.36-5.92V8a8 8 0 00-8-8zm-36.565 124.13a6.001 6.001 0 01-1.755 3.47l-.16.4-37.76 36.8 8.96 52a6 6 0 01-8.72 6.32l-46.72-24.72-46.72 24.56a6 6 0 01-6.32-.48 6 6 0 01-2.4-5.84l8.88-52-37.76-36.8a6 6 0 013.36-10.24l52.24-7.6 23.36-47.6a6.24 6.24 0 0110.8 0l23.36 47.36 52.24 7.6a6 6 0 015.115 6.77z" data-original="#000000" class="active-path" data-old_color="#000000" fill="#E5E5E5"/></svg>